<svg width="115" height="46" viewBox="0 0 115 46" fill="none" xmlns="http://www.w3.org/2000/svg">
<rect x="0.5" y="0.5" width="114" height="45" rx="22.5" stroke="#0C0D12"/>
<path d="M33.724 28H27.074V26.894H28.18V20.006H27.074V18.9H30.896V20.006H29.454V26.894H32.618L32.898 24.906L34.004 25.004L33.724 28ZM44.2359 23.45C44.2359 24.738 43.8159 25.844 42.9759 26.768C42.1453 27.6827 41.0299 28.14 39.6299 28.14C38.2206 28.14 37.1099 27.678 36.2979 26.754C35.4859 25.83 35.0799 24.7287 35.0799 23.45C35.0799 22.1433 35.4999 21.0373 36.3399 20.132C37.1799 19.2173 38.2859 18.76 39.6579 18.76C41.0486 18.76 42.1593 19.2173 42.9899 20.132C43.8206 21.0467 44.2359 22.1527 44.2359 23.45ZM42.8639 23.478C42.8639 22.4233 42.5746 21.5647 41.9959 20.902C41.4266 20.23 40.6473 19.894 39.6579 19.894C38.6313 19.894 37.8379 20.2393 37.2779 20.93C36.7273 21.6113 36.4519 22.4467 36.4519 23.436C36.4519 24.4067 36.7226 25.2467 37.2639 25.956C37.8146 26.656 38.6219 27.006 39.6859 27.006C40.7126 27.006 41.4966 26.67 42.0379 25.998C42.5886 25.326 42.8639 24.486 42.8639 23.478ZM54.4088 24.318H53.7788V28H52.7988L52.6448 26.824C52.3834 27.2067 52.0101 27.524 51.5248 27.776C51.0488 28.0187 50.4841 28.14 49.8308 28.14C48.5801 28.14 47.5674 27.692 46.7928 26.796C46.0274 25.9 45.6448 24.7987 45.6448 23.492C45.6448 22.1853 46.0508 21.07 46.8628 20.146C47.6748 19.222 48.7714 18.76 50.1528 18.76C50.8808 18.76 51.5248 18.8627 52.0848 19.068C52.6541 19.2733 53.1021 19.53 53.4288 19.838L53.6808 21.616L52.6308 21.728L52.3648 20.496C52.1128 20.3373 51.8048 20.1973 51.4408 20.076C51.0768 19.9547 50.6521 19.894 50.1668 19.894C49.2241 19.894 48.4588 20.2207 47.8708 20.874C47.2921 21.518 47.0028 22.3813 47.0028 23.464C47.0028 24.556 47.2828 25.4193 47.8428 26.054C48.4028 26.6887 49.1401 27.006 50.0548 27.006C50.8294 27.006 51.4314 26.8007 51.8608 26.39C52.2901 25.97 52.5048 25.4753 52.5048 24.906V24.318H50.4468V23.212H54.4088V24.318ZM68.3006 23.45C68.3006 24.738 67.8806 25.844 67.0406 26.768C66.2099 27.6827 65.0946 28.14 63.6946 28.14C62.2853 28.14 61.1746 27.678 60.3626 26.754C59.5506 25.83 59.1446 24.7287 59.1446 23.45C59.1446 22.1433 59.5646 21.0373 60.4046 20.132C61.2446 19.2173 62.3506 18.76 63.7226 18.76C65.1133 18.76 66.2239 19.2173 67.0546 20.132C67.8853 21.0467 68.3006 22.1527 68.3006 23.45ZM66.9286 23.478C66.9286 22.4233 66.6393 21.5647 66.0606 20.902C65.4913 20.23 64.7119 19.894 63.7226 19.894C62.6959 19.894 61.9026 20.2393 61.3426 20.93C60.7919 21.6113 60.5166 22.4467 60.5166 23.436C60.5166 24.4067 60.7873 25.2467 61.3286 25.956C61.8793 26.656 62.6866 27.006 63.7506 27.006C64.7773 27.006 65.5613 26.67 66.1026 25.998C66.6533 25.326 66.9286 24.486 66.9286 23.478ZM78.6584 20.006H77.7904V24.262C77.7904 24.906 77.6784 25.5267 77.4544 26.124C77.2304 26.712 76.8478 27.1973 76.3064 27.58C75.7651 27.9533 75.0231 28.14 74.0804 28.14C72.7178 28.14 71.7704 27.7667 71.2384 27.02C70.7158 26.264 70.4544 25.396 70.4544 24.416V20.006H69.5584V18.9H72.9324V20.006H71.7284V24.374C71.7284 25.186 71.9198 25.83 72.3024 26.306C72.6944 26.7727 73.3058 27.006 74.1364 27.006C75.7698 27.006 76.5864 26.0913 76.5864 24.262V20.006H75.3684V18.9H78.6584V20.006ZM88.0633 21.756L86.9433 21.854L86.6633 20.006H84.5913V26.894H86.1593V28H81.7913V26.894H83.3173V20.006H81.2313L80.9513 21.854L79.8453 21.756L80.1113 18.9H87.7833L88.0633 21.756Z" fill="#0C0D12"/>
</svg>
