<svg width="290" height="56" viewBox="0 0 290 56" fill="none" xmlns="http://www.w3.org/2000/svg">
<rect x="0.5" y="0.5" width="289" height="55" rx="27.5" stroke="#C9A489"/>
<path d="M70.22 33.64H71.18L74.6 25.94H72.94V24.58H76.38L80.32 33.64H81.38V35H77.24V33.64H78.46L77.84 32.08H73.6L72.98 33.64H74.3V35H70.22V33.64ZM75.72 26.86L74.1 30.86H77.36L75.8 26.86H75.72ZM87.7858 24.58C89.6124 24.58 91.0058 25.06 91.9658 26.02C92.9258 26.98 93.4058 28.2267 93.4058 29.76C93.4058 31.3067 92.9124 32.5667 91.9258 33.54C90.9524 34.5133 89.6058 35 87.8858 35H82.8658V33.64H84.1258V25.94H82.8658V24.58H87.7858ZM87.7458 33.64C90.2658 33.64 91.5258 32.3533 91.5258 29.78C91.5258 28.5667 91.1991 27.6267 90.5458 26.96C89.9058 26.28 88.9724 25.94 87.7458 25.94H85.8658V33.64H87.7458ZM100.339 24.58C102.166 24.58 103.559 25.06 104.519 26.02C105.479 26.98 105.959 28.2267 105.959 29.76C105.959 31.3067 105.466 32.5667 104.479 33.54C103.506 34.5133 102.159 35 100.439 35H95.4189V33.64H96.6789V25.94H95.4189V24.58H100.339ZM100.299 33.64C102.819 33.64 104.079 32.3533 104.079 29.78C104.079 28.5667 103.752 27.6267 103.099 26.96C102.459 26.28 101.526 25.94 100.299 25.94H98.4189V33.64H100.299ZM122.825 27.94L121.265 28.1L120.925 25.94H118.585V33.64H120.425V35H115.045V33.64H116.825V25.94H114.465L114.125 28.1L112.565 27.94L112.965 24.58H122.425L122.825 27.94ZM130.041 24.42C131.734 24.42 133.074 24.9467 134.061 26C135.047 27.04 135.541 28.3 135.541 29.78C135.541 31.26 135.041 32.5267 134.041 33.58C133.041 34.6333 131.687 35.16 129.981 35.16C128.261 35.16 126.914 34.6333 125.941 33.58C124.981 32.5267 124.501 31.2667 124.501 29.8C124.501 28.2933 125.001 27.02 126.001 25.98C127.014 24.94 128.361 24.42 130.041 24.42ZM130.041 33.76C131.187 33.76 132.074 33.3867 132.701 32.64C133.341 31.8933 133.661 30.96 133.661 29.84C133.661 28.64 133.327 27.6733 132.661 26.94C132.007 26.1933 131.127 25.82 130.021 25.82C128.874 25.82 127.981 26.2 127.341 26.96C126.701 27.7067 126.381 28.6467 126.381 29.78C126.381 30.8467 126.694 31.78 127.321 32.58C127.947 33.3667 128.854 33.76 130.041 33.76ZM151.559 34.06C151.159 34.3667 150.605 34.6267 149.899 34.84C149.192 35.0533 148.452 35.16 147.679 35.16C146.185 35.16 144.939 34.66 143.939 33.66C142.952 32.66 142.459 31.3867 142.459 29.84C142.459 28.3333 142.945 27.0533 143.919 26C144.892 24.9467 146.165 24.42 147.739 24.42C148.512 24.42 149.232 24.5267 149.899 24.74C150.579 24.94 151.105 25.1867 151.479 25.48L151.799 27.88L150.319 28.02L149.979 26.24C149.472 25.96 148.785 25.82 147.919 25.82C146.852 25.82 145.985 26.18 145.319 26.9C144.665 27.62 144.339 28.5867 144.339 29.8C144.339 31.0667 144.679 32.0467 145.359 32.74C146.052 33.42 146.905 33.76 147.919 33.76C148.705 33.76 149.405 33.6133 150.019 33.32L150.359 31.52L151.839 31.66L151.559 34.06ZM153.516 33.64H154.476L157.896 25.94H156.236V24.58H159.676L163.616 33.64H164.676V35H160.536V33.64H161.756L161.136 32.08H156.896L156.276 33.64H157.596V35H153.516V33.64ZM159.016 26.86L157.396 30.86H160.656L159.096 26.86H159.016ZM166.142 33.64H167.422V25.94H166.142V24.58H170.962C172.322 24.58 173.329 24.8533 173.982 25.4C174.649 25.9467 174.982 26.6667 174.982 27.56C174.982 28.3867 174.755 29.0333 174.302 29.5C173.862 29.9667 173.342 30.2933 172.742 30.48L174.522 33.64H175.822V35H173.322L171.042 30.8H169.162V33.64H170.482V35H166.142V33.64ZM170.682 29.52C171.589 29.52 172.215 29.3533 172.562 29.02C172.922 28.6867 173.102 28.2333 173.102 27.66C173.102 27.0333 172.915 26.5933 172.542 26.34C172.182 26.0733 171.562 25.94 170.682 25.94H169.162V29.52H170.682ZM187.225 27.94L185.665 28.1L185.325 25.94H182.985V33.64H184.825V35H179.445V33.64H181.225V25.94H178.865L178.525 28.1L176.965 27.94L177.365 24.58H186.825L187.225 27.94Z" fill="#0C0D12"/>
<path d="M208 37C212.971 37 217 32.9706 217 28C217 23.0294 212.971 19 208 19C203.029 19 199 23.0294 199 28C199 32.9706 203.029 37 208 37Z" fill="#0C0D12"/>
<path d="M205 28H211" stroke="white" stroke-linecap="round" stroke-linejoin="round"/>
<path d="M208 25V31" stroke="white" stroke-linecap="round" stroke-linejoin="round"/>
</svg>
