<svg width="115" height="46" viewBox="0 0 115 46" fill="none" xmlns="http://www.w3.org/2000/svg">
<rect x="0.5" y="0.5" width="114" height="45" rx="22.5" stroke="white"/>
<path d="M36.5 25.396C36.5 26.2827 36.1873 26.964 35.562 27.44C34.946 27.9067 34.1433 28.14 33.154 28.14C32.5473 28.14 31.9733 28.07 31.432 27.93C30.8907 27.7807 30.4613 27.5847 30.144 27.342L30.354 25.41L31.376 25.508L31.348 26.642C31.656 26.8007 31.95 26.908 32.23 26.964C32.5193 27.0107 32.804 27.034 33.084 27.034C33.6627 27.034 34.148 26.9267 34.54 26.712C34.9413 26.488 35.142 26.0913 35.142 25.522C35.142 24.8873 34.918 24.472 34.47 24.276C34.0313 24.0707 33.5367 23.912 32.986 23.8C32.5473 23.7067 32.1133 23.59 31.684 23.45C31.264 23.31 30.9093 23.0813 30.62 22.764C30.34 22.4373 30.2 21.966 30.2 21.35C30.2 20.4447 30.5033 19.7867 31.11 19.376C31.7167 18.9653 32.4167 18.76 33.21 18.76C33.742 18.76 34.2693 18.8393 34.792 18.998C35.3147 19.1473 35.7207 19.3433 36.01 19.586L36.094 21.448L35.072 21.546L34.918 20.272C34.6473 20.1227 34.372 20.02 34.092 19.964C33.812 19.908 33.546 19.88 33.294 19.88C32.7807 19.88 32.3607 19.992 32.034 20.216C31.7167 20.44 31.558 20.7713 31.558 21.21C31.558 21.7233 31.754 22.0733 32.146 22.26C32.538 22.4373 32.972 22.582 33.448 22.694C33.84 22.778 34.274 22.8947 34.75 23.044C35.226 23.184 35.6367 23.4313 35.982 23.786C36.3273 24.1407 36.5 24.6773 36.5 25.396ZM41.5265 28H38.0545V26.894H39.1605V20.006H38.0545V18.9H41.5265V20.006H40.4345V26.894H41.5265V28ZM51.6529 24.318H51.0229V28H50.0429L49.8889 26.824C49.6276 27.2067 49.2543 27.524 48.7689 27.776C48.2929 28.0187 47.7283 28.14 47.0749 28.14C45.8243 28.14 44.8116 27.692 44.0369 26.796C43.2716 25.9 42.8889 24.7987 42.8889 23.492C42.8889 22.1853 43.2949 21.07 44.1069 20.146C44.9189 19.222 46.0156 18.76 47.3969 18.76C48.1249 18.76 48.7689 18.8627 49.3289 19.068C49.8983 19.2733 50.3463 19.53 50.6729 19.838L50.9249 21.616L49.8749 21.728L49.6089 20.496C49.3569 20.3373 49.0489 20.1973 48.6849 20.076C48.3209 19.9547 47.8963 19.894 47.4109 19.894C46.4683 19.894 45.7029 20.2207 45.1149 20.874C44.5363 21.518 44.2469 22.3813 44.2469 23.464C44.2469 24.556 44.5269 25.4193 45.0869 26.054C45.6469 26.6887 46.3843 27.006 47.2989 27.006C48.0736 27.006 48.6756 26.8007 49.1049 26.39C49.5343 25.97 49.7489 25.4753 49.7489 24.906V24.318H47.6909V23.212H51.6529V24.318ZM62.4253 20.006H61.3333V28H60.5633L55.3973 21.238H55.3413V26.894H56.7273V28H53.1013V26.894H54.1373V20.006H52.9613V18.9H55.0613L60.0733 25.452H60.1293V20.006H58.7713V18.9H62.4253V20.006ZM76.3127 20.006H75.4447V24.262C75.4447 24.906 75.3327 25.5267 75.1087 26.124C74.8847 26.712 74.5021 27.1973 73.9607 27.58C73.4194 27.9533 72.6774 28.14 71.7347 28.14C70.3721 28.14 69.4247 27.7667 68.8927 27.02C68.3701 26.264 68.1087 25.396 68.1087 24.416V20.006H67.2127V18.9H70.5867V20.006H69.3827V24.374C69.3827 25.186 69.5741 25.83 69.9567 26.306C70.3487 26.7727 70.9601 27.006 71.7907 27.006C73.4241 27.006 74.2407 26.0913 74.2407 24.262V20.006H73.0227V18.9H76.3127V20.006ZM84.9755 21.728C84.9755 22.708 84.6722 23.45 84.0655 23.954C83.4682 24.458 82.7215 24.71 81.8255 24.71H80.1595V26.894H81.6715V28H77.7795V26.894H78.8855V20.006H77.7795V18.9H81.7415C82.8709 18.9 83.6922 19.1753 84.2055 19.726C84.7189 20.2673 84.9755 20.9347 84.9755 21.728ZM83.6175 21.756C83.6175 21.2147 83.4589 20.79 83.1415 20.482C82.8242 20.1647 82.3109 20.006 81.6015 20.006H80.1595V23.618H81.6295C82.9549 23.618 83.6175 22.9973 83.6175 21.756Z" fill="white"/>
</svg>
